name analog
datacolumns 19
datarows 52
range 0.523 0.5485
endheader
time	ground_force_vx	ground_force_vy	ground_force_vz	ground_force_px	ground_force_py	ground_force_pz	l_ground_force_vx	l_ground_force_vy	l_ground_force_vz	l_ground_force_px	l_ground_force_py	l_ground_force_pz	ground_torque_x	ground_torque_y	ground_torque_z	l_ground_torque_x	l_ground_torque_y	l_ground_torque_z
0.523	-0.0	-0.0	-0.0	-0.0	-0.0	-0.0	4.892292022705078	7.6171674728393555	-727.853515625	-0.0	-0.0	-0.0	-0.0	-0.0	-0.0	220637.34375	21927.283203125	2381.755615234375
0.5235	-0.0	-0.0	-0.0	-0.0	-0.0	-0.0	4.5126237869262695	8.07564640045166	-730.4251708984375	-0.0	-0.0	-0.0	-0.0	-0.0	-0.0	221673.828125	22033.404296875	2195.899169921875
0.524	-0.0	-0.0	-0.0	-0.0	-0.0	-0.0	4.188237190246582	8.71514892578125	-734.618408203125	-0.0	-0.0	-0.0	-0.0	-0.0	-0.0	222911.625	22059.044921875	2110.354248046875
0.5245	-0.0	-0.0	-0.0	-0.0	-0.0	-0.0	3.3140575885772705	9.772053718566896	-739.58056640625	-0.0	-0.0	-0.0	-0.0	-0.0	-0.0	224646.515625	21874.02734375	1907.5538330078125
0.525	-0.0	-0.0	-0.0	-0.0	-0.0	-0.0	3.0477547645568848	10.468755722045898	-742.5975952148438	-0.0	-0.0	-0.0	-0.0	-0.0	-0.0	226357.421875	21878.607421875	1787.7996826171875
0.5255	-0.0	-0.0	-0.0	-0.0	-0.0	-0.0	2.661323547363281	11.292423248291016	-746.3865966796875	-0.0	-0.0	-0.0	-0.0	-0.0	-0.0	227967.78125	22217.8984375	1657.4869384765625
0.526	-0.0	-0.0	-0.0	-0.0	-0.0	-0.0	1.4542109966278076	11.857186317443848	-751.7980346679688	-0.0	-0.0	-0.0	-0.0	-0.0	-0.0	229354.546875	21670.49609375	1284.942138671875
0.5265	-0.0	-0.0	-0.0	-0.0	-0.0	-0.0	0.4812899231910705	12.630001068115234	-756.287353515625	-0.0	-0.0	-0.0	-0.0	-0.0	-0.0	230706.4375	21771.458984375	950.6690063476562
0.527	-0.0	-0.0	-0.0	-0.0	-0.0	-0.0	-0.0166307836771011	12.806644439697266	-759.5757446289062	-0.0	-0.0	-0.0	-0.0	-0.0	-0.0	231807.4375	21667.560546875	791.584228515625
0.5275	-0.0	-0.0	-0.0	-0.0	-0.0	-0.0	-0.1262646168470382	12.062682151794434	-762.0502319335938	-0.0	-0.0	-0.0	-0.0	-0.0	-0.0	232680.59375	21502.240234375	884.3421630859375
0.528	-0.0	-0.0	-0.0	-0.0	-0.0	-0.0	-0.1547737419605255	11.096668243408203	-765.2379760742188	-0.0	-0.0	-0.0	-0.0	-0.0	-0.0	233216.546875	21500.716796875	714.8798828125
0.5285	-0.0	-0.0	-0.0	-0.0	-0.0	-0.0	-0.5066441893577576	9.708465576171877	-765.5380859375	-0.0	-0.0	-0.0	-0.0	-0.0	-0.0	233462.515625	21099.9921875	828.4329833984375
0.529	-0.0	-0.0	-0.0	-0.0	-0.0	-0.0	-0.5450963973999023	8.34996509552002	-766.066650390625	-0.0	-0.0	-0.0	-0.0	-0.0	-0.0	233467.203125	20927.322265625	866.48291015625
0.5295	-0.0	-0.0	-0.0	-0.0	-0.0	-0.0	-0.950048327445984	7.0287275314331055	-764.8897705078125	-0.0	-0.0	-0.0	-0.0	-0.0	-0.0	232631.578125	20941.083984375	823.0853881835938
0.53	-0.0	-0.0	-0.0	-0.0	-0.0	-0.0	-1.4620078802108765	5.6341705322265625	-761.309814453125	-0.0	-0.0	-0.0	-0.0	-0.0	-0.0	231931.328125	20483.677734375	742.0550537109375
0.5305	-0.0	-0.0	-0.0	-0.0	-0.0	-0.0	-1.598869800567627	4.379249572753906	-759.8341674804688	-0.0	-0.0	-0.0	-0.0	-0.0	-0.0	231169.796875	20596.888671875	687.8358154296875
0.531	-0.0	-0.0	-0.0	-0.0	-0.0	-0.0	-1.929363489151001	3.4946274757385254	-758.7276611328125	-0.0	-0.0	-0.0	-0.0	-0.0	-0.0	230226.96875	20365.119140625	554.8116455078125
0.5315	-0.0	-0.0	-0.0	-0.0	-0.0	-0.0	-2.1444573402404785	2.763885498046875	-756.9188842773438	-0.0	-0.0	-0.0	-0.0	-0.0	-0.0	229729.078125	20153.1953125	482.50482177734375
0.532	-0.0	-0.0	-0.0	-0.0	-0.0	-0.0	-2.175814628601074	2.12253999710083	-756.8118286132812	-0.0	-0.0	-0.0	-0.0	-0.0	-0.0	229213.140625	20006.07421875	498.96240234375
0.5325	-0.0	-0.0	-0.0	-0.0	-0.0	-0.0	-2.4265241622924805	1.187203884124756	-756.7861328125	-0.0	-0.0	-0.0	-0.0	-0.0	-0.0	228794.96875	19586.76953125	510.6941223144531
0.533	-0.0	-0.0	-0.0	-0.0	-0.0	-0.0	-2.461676359176636	0.7662615180015564	-757.3438110351562	-0.0	-0.0	-0.0	-0.0	-0.0	-0.0	228799.640625	19187.025390625	351.38232421875
0.5335	-0.0	-0.0	-0.0	-0.0	-0.0	-0.0	-2.181546688079834	0.5199947953224182	-756.1591186523438	-0.0	-0.0	-0.0	-0.0	-0.0	-0.0	228236.578125	18936.4453125	494.093505859375
0.534	-0.0	-0.0	-0.0	-0.0	-0.0	-0.0	-1.9894099235534668	0.1120663732290268	-755.5803833007812	-0.0	-0.0	-0.0	-0.0	-0.0	-0.0	228054.984375	18408.86328125	466.0757141113281
0.5345	-0.0	-0.0	-0.0	-0.0	-0.0	-0.0	-1.83180034160614	0.14677394926548	-755.6491088867188	-0.0	-0.0	-0.0	-0.0	-0.0	-0.0	227614.84375	17961.337890625	440.5200500488281
0.535	-0.0	-0.0	-0.0	-0.0	-0.0	-0.0	-1.2947741746902466	-0.1714073419570922	-756.057861328125	-0.0	-0.0	-0.0	-0.0	-0.0	-0.0	227264.484375	17647.9296875	431.3593444824219
0.5355	-0.0	-0.0	-0.0	-0.0	-0.0	-0.0	-1.002299666404724	0.1160022616386413	-755.9862060546875	-0.0	-0.0	-0.0	-0.0	-0.0	-0.0	226356.203125	17187.13671875	452.69036865234375
0.536	-0.0	-0.0	-0.0	-0.0	-0.0	-0.0	-0.3169284164905548	-0.5565594434738159	-753.0941162109375	-0.0	-0.0	-0.0	-0.0	-0.0	-0.0	225864.78125	16542.025390625	437.0928039550781
0.5365	-0.0	-0.0	-0.0	-0.0	-0.0	-0.0	0.2572687864303589	-0.5520544052124023	-751.3568115234375	-0.0	-0.0	-0.0	-0.0	-0.0	-0.0	224970.359375	15998.8583984375	468.7547607421875
0.537	-0.0	-0.0	-0.0	-0.0	-0.0	-0.0	0.7049976587295532	-0.7332743406295776	-749.3843994140625	-0.0	-0.0	-0.0	-0.0	-0.0	-0.0	224105.8125	15200.03515625	506.8140869140625
0.5375	-0.0	-0.0	-0.0	-0.0	-0.0	-0.0	1.3306617736816406	-2.0494754314422607	-748.0256958007812	-0.0	-0.0	-0.0	-0.0	-0.0	-0.0	223650.484375	14591.4658203125	566.9050903320312
0.538	-0.0	-0.0	-0.0	-0.0	-0.0	-0.0	1.438593864440918	-2.695472478866577	-746.8352661132812	-0.0	-0.0	-0.0	-0.0	-0.0	-0.0	222749.109375	13758.3515625	583.2630004882812
0.5385	-0.0	-0.0	-0.0	-0.0	-0.0	-0.0	1.937098503112793	-3.9611334800720215	-746.2590942382812	-0.0	-0.0	-0.0	-0.0	-0.0	-0.0	221943.28125	13083.021484375	486.7032165527344
0.539	-0.0	-0.0	-0.0	-0.0	-0.0	-0.0	2.032339334487915	-5.2993011474609375	-746.2850952148438	-0.0	-0.0	-0.0	-0.0	-0.0	-0.0	221444.609375	12660.4482421875	527.9866333007812
0.5395	-0.0	-0.0	-0.0	-0.0	-0.0	-0.0	2.040348052978516	-6.324509143829346	-745.3768920898438	-0.0	-0.0	-0.0	-0.0	-0.0	-0.0	220914.984375	12429.943359375	381.7154846191406
0.54	-0.0	-0.0	-0.0	-0.0	-0.0	-0.0	1.2140295505523682	-8.181241035461426	-745.5260009765625	-0.0	-0.0	-0.0	-0.0	-0.0	-0.0	220412.921875	11655.0908203125	88.7645492553711
0.5405	-0.0	-0.0	-0.0	-0.0	-0.0	-0.0	1.309624195098877	-9.926456451416016	-745.2493896484375	-0.0	-0.0	-0.0	-0.0	-0.0	-0.0	219666.1875	11375.0439453125	-10.66165828704834
0.541	-0.0	-0.0	-0.0	-0.0	-0.0	-0.0	1.2056845426559448	-11.401598930358888	-744.8131713867188	-0.0	-0.0	-0.0	-0.0	-0.0	-0.0	219194.609375	10907.927734375	-62.55012512207031
0.5415	-0.0	-0.0	-0.0	-0.0	-0.0	-0.0	1.0645294189453125	-13.091570854187012	-745.494873046875	-0.0	-0.0	-0.0	-0.0	-0.0	-0.0	218582.5625	10665.73046875	-210.2164459228516
0.542	-0.0	-0.0	-0.0	-0.0	-0.0	-0.0	1.1089982986450195	-13.854639053344728	-744.310302734375	-0.0	-0.0	-0.0	-0.0	-0.0	-0.0	218456.390625	10380.234375	-246.92132568359372
0.5425	-0.0	-0.0	-0.0	-0.0	-0.0	-0.0	1.0816723108291626	-15.17092990875244	-744.6063232421875	-0.0	-0.0	-0.0	-0.0	-0.0	-0.0	218224.640625	9972.646484375	-357.8480224609375
0.543	-0.0	-0.0	-0.0	-0.0	-0.0	-0.0	1.013322114944458	-15.937135696411133	-746.1304321289062	-0.0	-0.0	-0.0	-0.0	-0.0	-0.0	218180.4375	9623.6494140625	-434.5802001953125
0.5435	-0.0	-0.0	-0.0	-0.0	-0.0	-0.0	1.2483824491500854	-16.96416664123535	-748.0986938476562	-0.0	-0.0	-0.0	-0.0	-0.0	-0.0	218625.71875	9351.8994140625	-357.2389221191406
0.544	-0.0	-0.0	-0.0	-0.0	-0.0	-0.0	1.2312874794006348	-17.451953887939453	-751.465087890625	-0.0	-0.0	-0.0	-0.0	-0.0	-0.0	219185.46875	9006.947265625	-374.1632080078125
0.5445	-0.0	-0.0	-0.0	-0.0	-0.0	-0.0	2.315603256225586	-17.973453521728516	-755.30517578125	-0.0	-0.0	-0.0	-0.0	-0.0	-0.0	219918.03125	8638.51171875	-280.1233215332031
0.545	-0.0	-0.0	-0.0	-0.0	-0.0	-0.0	3.083176851272583	-17.98577117919922	-758.783935546875	-0.0	-0.0	-0.0	-0.0	-0.0	-0.0	221025.046875	8315.671875	-203.09732055664065
0.5455	-0.0	-0.0	-0.0	-0.0	-0.0	-0.0	3.4043972492218018	-17.91790199279785	-763.1591186523438	-0.0	-0.0	-0.0	-0.0	-0.0	-0.0	221993.90625	7744.3154296875	-100.37186431884766
0.546	-0.0	-0.0	-0.0	-0.0	-0.0	-0.0	3.807626724243164	-17.55805015563965	-765.4876708984375	-0.0	-0.0	-0.0	-0.0	-0.0	-0.0	222897.625	7466.552734375	-170.47512817382812
0.5465	-0.0	-0.0	-0.0	-0.0	-0.0	-0.0	4.302504539489746	-16.65135955810547	-769.6708984375	-0.0	-0.0	-0.0	-0.0	-0.0	-0.0	223912.90625	7108.8642578125	-179.12173461914062
0.547	-0.0	-0.0	-0.0	-0.0	-0.0	-0.0	4.535016059875488	-15.392584800720217	-773.7703857421875	-0.0	-0.0	-0.0	-0.0	-0.0	-0.0	225050.609375	6886.482421875	-231.0216217041016
0.5475	-0.0	-0.0	-0.0	-0.0	-0.0	-0.0	4.81342887878418	-14.136341094970703	-776.3839721679688	-0.0	-0.0	-0.0	-0.0	-0.0	-0.0	226052.59375	6378.60986328125	-257.8010559082031
0.548	-0.0	-0.0	-0.0	-0.0	-0.0	-0.0	5.431375980377197	-12.407743453979492	-779.2742919921875	-0.0	-0.0	-0.0	-0.0	-0.0	-0.0	226900.9375	6133.2080078125	-364.7009582519531
0.5485	-0.0	-0.0	-0.0	-0.0	-0.0	-0.0	5.728785037994385	-10.533506393432615	-781.6309204101562	-0.0	-0.0	-0.0	-0.0	-0.0	-0.0	227603.21875	6127.4052734375	-389.7085571289063
